REM DIRINDEX 1\2,1\3,1\4,1\5
REM DIRNAME cjc044,folder01,folder02,folder03,folder04
TITLE ""
FILE "1800_122.mp3" MP3
  TRACK 01 AUDIO
    TITLE "2:cjc044_3549"
    INDEX 01 00:00:00
  TRACK 02 AUDIO
    TITLE "0:"
    INDEX 01 00:00:70
  TRACK 03 AUDIO
    TITLE "3:cjc044_3550"
    INDEX 01 00:01:60
  TRACK 04 AUDIO
    TITLE "0:"
    INDEX 01 00:02:49
  TRACK 05 AUDIO
    TITLE "4:cjc044_3551"
    INDEX 01 00:03:33
  TRACK 06 AUDIO
    TITLE "0:"
    INDEX 01 00:04:38
  TRACK 07 AUDIO
    TITLE "5:cjc044_3552"
    INDEX 01 00:05:30
  TRACK 08 AUDIO
    TITLE "0:"
    INDEX 01 00:08:30
  TRACK 09 AUDIO
    TITLE "2:cjc044_3553"
    INDEX 01 00:10:18
  TRACK 10 AUDIO
    TITLE "0:"
    INDEX 01 00:11:27
  TRACK 11 AUDIO
    TITLE "3:cjc044_3554"
    INDEX 01 00:12:12
  TRACK 12 AUDIO
    TITLE "0:"
    INDEX 01 00:13:73
  TRACK 13 AUDIO
    TITLE "4:cjc044_3555"
    INDEX 01 00:14:60
  TRACK 14 AUDIO
    TITLE "0:"
    INDEX 01 00:16:02
  TRACK 15 AUDIO
    TITLE "5:cjc044_3556"
    INDEX 01 00:16:53
  TRACK 16 AUDIO
    TITLE "0:"
    INDEX 01 00:20:06
  TRACK 17 AUDIO
    TITLE "2:cjc044_3557"
    INDEX 01 00:21:64
  TRACK 18 AUDIO
    TITLE "0:"
    INDEX 01 00:22:70
  TRACK 19 AUDIO
    TITLE "3:cjc044_3558"
    INDEX 01 00:23:59
  TRACK 20 AUDIO
    TITLE "0:"
    INDEX 01 00:24:55
  TRACK 21 AUDIO
    TITLE "4:cjc044_3559"
    INDEX 01 00:25:35
  TRACK 22 AUDIO
    TITLE "0:"
    INDEX 01 00:26:46
  TRACK 23 AUDIO
    TITLE "5:cjc044_3560"
    INDEX 01 00:27:34
  TRACK 24 AUDIO
    TITLE "0:"
    INDEX 01 00:31:04
  TRACK 25 AUDIO
    TITLE "2:cjc044_3561"
    INDEX 01 00:32:66
  TRACK 26 AUDIO
    TITLE "0:"
    INDEX 01 00:33:73
  TRACK 27 AUDIO
    TITLE "3:cjc044_3562"
    INDEX 01 00:34:57
  TRACK 28 AUDIO
    TITLE "0:"
    INDEX 01 00:36:68
  TRACK 29 AUDIO
    TITLE "4:cjc044_3563"
    INDEX 01 00:37:52
  TRACK 30 AUDIO
    TITLE "0:"
    INDEX 01 00:38:63
  TRACK 31 AUDIO
    TITLE "5:cjc044_3564"
    INDEX 01 00:39:37
  TRACK 32 AUDIO
    TITLE "0:"
    INDEX 01 00:42:27
  TRACK 33 AUDIO
    TITLE "2:cjc044_3565"
    INDEX 01 00:44:12
  TRACK 34 AUDIO
    TITLE "0:"
    INDEX 01 00:45:18
  TRACK 35 AUDIO
    TITLE "3:cjc044_3566"
    INDEX 01 00:46:00
  TRACK 36 AUDIO
    TITLE "0:"
    INDEX 01 00:47:17
  TRACK 37 AUDIO
    TITLE "4:cjc044_3567"
    INDEX 01 00:48:04
  TRACK 38 AUDIO
    TITLE "0:"
    INDEX 01 00:49:10
  TRACK 39 AUDIO
    TITLE "5:cjc044_3568"
    INDEX 01 00:49:65
  TRACK 40 AUDIO
    TITLE "0:"
    INDEX 01 00:53:41
  TRACK 41 AUDIO
    TITLE "2:cjc044_3569"
    INDEX 01 00:55:24
  TRACK 42 AUDIO
    TITLE "0:"
    INDEX 01 00:56:41
  TRACK 43 AUDIO
    TITLE "3:cjc044_3570"
    INDEX 01 00:57:23
  TRACK 44 AUDIO
    TITLE "0:"
    INDEX 01 00:59:00
  TRACK 45 AUDIO
    TITLE "4:cjc044_3571"
    INDEX 01 00:59:63
  TRACK 46 AUDIO
    TITLE "0:"
    INDEX 01 01:01:07
  TRACK 47 AUDIO
    TITLE "5:cjc044_3572"
    INDEX 01 01:01:50
  TRACK 48 AUDIO
    TITLE "0:"
    INDEX 01 01:04:56
  TRACK 49 AUDIO
    TITLE "2:cjc044_3573"
    INDEX 01 01:06:43
  TRACK 50 AUDIO
    TITLE "0:"
    INDEX 01 01:07:66
  TRACK 51 AUDIO
    TITLE "3:cjc044_3574"
    INDEX 01 01:08:48
  TRACK 52 AUDIO
    TITLE "0:"
    INDEX 01 01:09:50
  TRACK 53 AUDIO
    TITLE "4:cjc044_3575"
    INDEX 01 01:10:37
  TRACK 54 AUDIO
    TITLE "0:"
    INDEX 01 01:11:58
  TRACK 55 AUDIO
    TITLE "5:cjc044_3576"
    INDEX 01 01:12:46
  TRACK 56 AUDIO
    TITLE "0:"
    INDEX 01 01:15:42
  TRACK 57 AUDIO
    TITLE "2:cjc044_3577"
    INDEX 01 01:17:30
  TRACK 58 AUDIO
    TITLE "0:"
    INDEX 01 01:18:39
  TRACK 59 AUDIO
    TITLE "3:cjc044_3578"
    INDEX 01 01:19:21
  TRACK 60 AUDIO
    TITLE "0:"
    INDEX 01 01:20:32
  TRACK 61 AUDIO
    TITLE "4:cjc044_3579"
    INDEX 01 01:21:16
  TRACK 62 AUDIO
    TITLE "0:"
    INDEX 01 01:22:27
  TRACK 63 AUDIO
    TITLE "5:cjc044_3580"
    INDEX 01 01:23:16
  TRACK 64 AUDIO
    TITLE "0:"
    INDEX 01 01:26:72
  TRACK 65 AUDIO
    TITLE "2:cjc044_3581"
    INDEX 01 01:28:57
  TRACK 66 AUDIO
    TITLE "0:"
    INDEX 01 01:29:66
  TRACK 67 AUDIO
    TITLE "3:cjc044_3582"
    INDEX 01 01:30:50
  TRACK 68 AUDIO
    TITLE "0:"
    INDEX 01 01:32:19
  TRACK 69 AUDIO
    TITLE "4:cjc044_3583"
    INDEX 01 01:32:72
  TRACK 70 AUDIO
    TITLE "0:"
    INDEX 01 01:34:06
  TRACK 71 AUDIO
    TITLE "5:cjc044_3584"
    INDEX 01 01:34:65
  TRACK 72 AUDIO
    TITLE "0:"
    INDEX 01 01:38:16
